<mxfile host="app.diagrams.net" modified="2024-05-15T10:32:04.917Z" agent="Mozilla/5.0 (Macintosh; Intel Mac OS X 10_15_7) AppleWebKit/537.36 (KHTML, like Gecko) Chrome/123.0.0.0 Safari/537.36" etag="F-n-w6sN5NGaRIjv7y2t" version="24.4.0" type="device">
  <diagram name="Page-1" id="tn6WY80kGF0sFSkj93bq">
    <mxGraphModel dx="989" dy="497" grid="1" gridSize="10" guides="1" tooltips="1" connect="1" arrows="1" fold="1" page="1" pageScale="1" pageWidth="827" pageHeight="1169" math="0" shadow="0">
      <root>
        <mxCell id="0" />
        <mxCell id="1" parent="0" />
        <mxCell id="I-hYZr075NC79i1QQn1--24" value="" style="rounded=0;whiteSpace=wrap;html=1;" vertex="1" parent="1">
          <mxGeometry x="10" y="10" width="460" height="560" as="geometry" />
        </mxCell>
        <mxCell id="I-hYZr075NC79i1QQn1--17" style="edgeStyle=orthogonalEdgeStyle;rounded=0;orthogonalLoop=1;jettySize=auto;html=1;entryX=0;entryY=0.5;entryDx=0;entryDy=0;" edge="1" parent="1" source="I-hYZr075NC79i1QQn1--1" target="I-hYZr075NC79i1QQn1--2">
          <mxGeometry relative="1" as="geometry" />
        </mxCell>
        <mxCell id="I-hYZr075NC79i1QQn1--1" value="Sequenced reads" style="rounded=0;whiteSpace=wrap;html=1;fillColor=#dae8fc;strokeColor=#6c8ebf;" vertex="1" parent="1">
          <mxGeometry x="30" y="90" width="120" height="60" as="geometry" />
        </mxCell>
        <mxCell id="I-hYZr075NC79i1QQn1--32" style="edgeStyle=orthogonalEdgeStyle;rounded=0;orthogonalLoop=1;jettySize=auto;html=1;" edge="1" parent="1" source="I-hYZr075NC79i1QQn1--26" target="I-hYZr075NC79i1QQn1--3">
          <mxGeometry relative="1" as="geometry" />
        </mxCell>
        <mxCell id="I-hYZr075NC79i1QQn1--2" value="Read trimming&lt;div&gt;and filtering&lt;/div&gt;" style="rounded=0;whiteSpace=wrap;html=1;fillColor=#e1d5e7;strokeColor=#9673a6;" vertex="1" parent="1">
          <mxGeometry x="190" y="90" width="120" height="60" as="geometry" />
        </mxCell>
        <mxCell id="I-hYZr075NC79i1QQn1--19" style="edgeStyle=orthogonalEdgeStyle;rounded=0;orthogonalLoop=1;jettySize=auto;html=1;entryX=0.5;entryY=0;entryDx=0;entryDy=0;" edge="1" parent="1" source="I-hYZr075NC79i1QQn1--29" target="I-hYZr075NC79i1QQn1--6">
          <mxGeometry relative="1" as="geometry" />
        </mxCell>
        <mxCell id="I-hYZr075NC79i1QQn1--3" value="Genome assembly" style="rounded=0;whiteSpace=wrap;html=1;fillColor=#e1d5e7;strokeColor=#9673a6;" vertex="1" parent="1">
          <mxGeometry x="190" y="270" width="120" height="60" as="geometry" />
        </mxCell>
        <mxCell id="I-hYZr075NC79i1QQn1--6" value="Downstream&amp;nbsp;&lt;div&gt;analysis&lt;/div&gt;" style="rounded=0;whiteSpace=wrap;html=1;fillColor=#e1d5e7;strokeColor=#9673a6;" vertex="1" parent="1">
          <mxGeometry x="190" y="480" width="120" height="60" as="geometry" />
        </mxCell>
        <mxCell id="I-hYZr075NC79i1QQn1--33" value="" style="edgeStyle=orthogonalEdgeStyle;rounded=0;orthogonalLoop=1;jettySize=auto;html=1;" edge="1" parent="1" source="I-hYZr075NC79i1QQn1--2" target="I-hYZr075NC79i1QQn1--26">
          <mxGeometry relative="1" as="geometry">
            <mxPoint x="250" y="150" as="sourcePoint" />
            <mxPoint x="250" y="250" as="targetPoint" />
          </mxGeometry>
        </mxCell>
        <mxCell id="I-hYZr075NC79i1QQn1--26" value="" style="verticalLabelPosition=bottom;verticalAlign=top;html=1;shape=mxgraph.basic.polygon;polyCoords=[[0.25,0],[0.75,0],[1,0.25],[1,0.75],[0.75,1],[0.25,1],[0,0.75],[0,0.25]];polyline=0;fillColor=#f8cecc;strokeColor=#b85450;" vertex="1" parent="1">
          <mxGeometry x="225" y="180" width="50" height="50" as="geometry" />
        </mxCell>
        <mxCell id="I-hYZr075NC79i1QQn1--34" value="" style="edgeStyle=orthogonalEdgeStyle;rounded=0;orthogonalLoop=1;jettySize=auto;html=1;entryX=0.5;entryY=0;entryDx=0;entryDy=0;" edge="1" parent="1" source="I-hYZr075NC79i1QQn1--3" target="I-hYZr075NC79i1QQn1--29">
          <mxGeometry relative="1" as="geometry">
            <mxPoint x="250" y="310" as="sourcePoint" />
            <mxPoint x="250" y="380" as="targetPoint" />
          </mxGeometry>
        </mxCell>
        <mxCell id="I-hYZr075NC79i1QQn1--29" value="" style="verticalLabelPosition=bottom;verticalAlign=top;html=1;shape=mxgraph.basic.polygon;polyCoords=[[0.25,0],[0.75,0],[1,0.25],[1,0.75],[0.75,1],[0.25,1],[0,0.75],[0,0.25]];polyline=0;fillColor=#f8cecc;strokeColor=#b85450;" vertex="1" parent="1">
          <mxGeometry x="225" y="365" width="50" height="55" as="geometry" />
        </mxCell>
        <mxCell id="I-hYZr075NC79i1QQn1--37" value="&lt;ul&gt;&lt;li&gt;Yield&lt;/li&gt;&lt;li&gt;Contamination&lt;/li&gt;&lt;li&gt;Condition&lt;/li&gt;&lt;/ul&gt;" style="text;html=1;align=left;verticalAlign=middle;whiteSpace=wrap;rounded=0;" vertex="1" parent="1">
          <mxGeometry x="260" y="170" width="120" height="70" as="geometry" />
        </mxCell>
        <mxCell id="I-hYZr075NC79i1QQn1--38" value="&lt;ul&gt;&lt;li&gt;Contiguity&lt;/li&gt;&lt;li&gt;Completeness&lt;/li&gt;&lt;li&gt;Contamination&lt;/li&gt;&lt;li&gt;Correctness&lt;/li&gt;&lt;/ul&gt;" style="text;html=1;align=left;verticalAlign=middle;whiteSpace=wrap;rounded=0;" vertex="1" parent="1">
          <mxGeometry x="260" y="357.5" width="120" height="70" as="geometry" />
        </mxCell>
        <mxCell id="I-hYZr075NC79i1QQn1--41" value="Stop&lt;div&gt;and check&lt;/div&gt;" style="text;html=1;align=center;verticalAlign=middle;whiteSpace=wrap;rounded=0;" vertex="1" parent="1">
          <mxGeometry x="220" y="190" width="60" height="30" as="geometry" />
        </mxCell>
        <mxCell id="I-hYZr075NC79i1QQn1--42" value="Stop&lt;div&gt;and check&lt;/div&gt;" style="text;html=1;align=center;verticalAlign=middle;whiteSpace=wrap;rounded=0;" vertex="1" parent="1">
          <mxGeometry x="220" y="377.5" width="60" height="30" as="geometry" />
        </mxCell>
      </root>
    </mxGraphModel>
  </diagram>
</mxfile>
